<svg xmlns="http://www.w3.org/2000/svg" xmlns:xlink="http://www.w3.org/1999/xlink" width="500" zoomAndPan="magnify" viewBox="0 0 375 374.999991" height="500" preserveAspectRatio="xMidYMid meet" version="1.0"><defs><g/><clipPath id="id1"><path d="M 72.890625 142.910156 L 309.621094 142.910156 L 309.621094 273.410156 L 72.890625 273.410156 Z M 72.890625 142.910156 " clip-rule="nonzero"/></clipPath></defs><rect x="-37.5" width="450" fill="#ffffff" y="-37.499999" height="449.999989" fill-opacity="1"/><rect x="-37.5" width="450" fill="#ffffff" y="-37.499999" height="449.999989" fill-opacity="1"/><rect x="-37.5" width="450" fill="#303030" y="-37.499999" height="449.999989" fill-opacity="1"/><g fill="#f0dfc8" fill-opacity="1"><g transform="translate(103.167397, 196.447319)"><g><path d="M 33.972656 0 L 33.972656 -1.460938 C 28.25 -1.460938 25.570312 -2.433594 25.570312 -7.914062 L 25.570312 -45.78125 L 39.695312 -45.78125 C 51.992188 -45.78125 53.695312 -40.914062 53.695312 -25.691406 L 55.28125 -25.691406 L 55.28125 -65.996094 L 53.695312 -65.996094 C 53.695312 -52.359375 51.992188 -47.488281 39.695312 -47.367188 L 25.570312 -47.367188 L 25.570312 -87.183594 L 39.9375 -87.183594 C 52.722656 -86.9375 61.246094 -85.964844 67.699219 -69.40625 L 69.28125 -69.40625 L 62.828125 -88.765625 L 3.652344 -88.765625 L 3.652344 -87.183594 C 9.496094 -87.183594 12.054688 -86.207031 12.054688 -80.605469 L 12.054688 -8.15625 C 12.054688 -2.558594 9.496094 -1.582031 3.652344 -1.582031 L 3.652344 0 Z M 33.972656 0 "/></g></g></g><g clip-path="url(#id1)"><path fill="#f0dfc8" d="M 268.417969 214.847656 C 269.863281 215.269531 271.351562 215.59375 272.867188 215.808594 C 274.359375 216.019531 275.882812 216.132812 277.417969 216.132812 C 286.296875 216.132812 294.335938 212.53125 300.15625 206.707031 C 305.972656 200.886719 309.574219 192.84375 309.574219 183.960938 C 309.574219 175.078125 305.972656 167.03125 300.15625 161.210938 C 294.335938 155.386719 286.296875 151.789062 277.417969 151.789062 C 272.484375 151.789062 267.808594 152.902344 263.625 154.894531 C 259.28125 156.960938 255.476562 159.972656 252.46875 163.667969 C 243.371094 174.699219 235.960938 186.273438 228.554688 197.839844 C 213.296875 221.675781 198.054688 245.472656 168.269531 264.066406 C 165.546875 265.550781 162.703125 266.84375 159.761719 267.921875 C 152.941406 270.421875 145.570312 271.789062 137.878906 271.789062 C 120.320312 271.789062 104.421875 264.664062 92.914062 253.152344 C 81.40625 241.636719 74.289062 225.730469 74.289062 208.164062 C 74.289062 190.589844 81.410156 174.683594 92.914062 163.171875 C 103.800781 152.28125 118.613281 145.320312 135.046875 144.597656 C 133.753906 145.535156 132.910156 147.054688 132.910156 148.777344 C 132.910156 151.621094 135.214844 153.925781 138.058594 153.925781 C 140.902344 153.925781 143.207031 151.621094 143.207031 148.777344 C 143.207031 146.300781 141.460938 144.230469 139.132812 143.734375 L 139.144531 142.925781 L 137.882812 142.914062 C 119.875 142.914062 103.570312 150.214844 91.769531 162.023438 C 79.96875 173.832031 72.667969 190.144531 72.667969 208.164062 C 72.667969 226.183594 79.96875 242.496094 91.769531 254.304688 C 103.570312 266.113281 119.875 273.417969 137.882812 273.417969 C 145.765625 273.417969 153.324219 272.015625 160.324219 269.449219 C 167.574219 266.789062 174.226562 262.878906 180.011719 257.976562 C 203.15625 240.515625 216.53125 219.632812 229.921875 198.722656 C 237.308594 187.183594 244.699219 175.640625 253.722656 164.699219 L 253.101562 164.183594 L 253.726562 164.695312 C 256.578125 161.191406 260.195312 158.328125 264.320312 156.367188 C 268.285156 154.476562 272.730469 153.417969 277.421875 153.417969 C 285.855469 153.417969 293.488281 156.835938 299.011719 162.363281 C 304.539062 167.894531 307.957031 175.53125 307.957031 183.96875 C 307.957031 192.402344 304.539062 200.039062 299.011719 205.570312 C 293.488281 211.097656 285.855469 214.515625 277.421875 214.515625 C 275.945312 214.515625 274.5 214.410156 273.09375 214.214844 C 271.648438 214.007812 270.238281 213.703125 268.871094 213.304688 L 268.421875 214.859375 Z M 268.417969 214.847656 " fill-opacity="1" fill-rule="nonzero"/></g><g fill="#f0dfc8" fill-opacity="1"><g transform="translate(119.261492, 235.050556)"><g><path d="M 5.34375 -6.863281 L 5.34375 -7.589844 L 0.835938 -7.589844 L 0.835938 0 L 1.617188 0 L 1.617188 -3.425781 L 5.234375 -3.425781 L 5.234375 -4.164062 L 1.617188 -4.164062 L 1.617188 -6.863281 Z M 5.34375 -6.863281 "/></g></g></g><g fill="#f0dfc8" fill-opacity="1"><g transform="translate(132.774942, 235.050556)"><g><path d="M 1.617188 -0.78125 L 1.617188 -7.589844 L 0.835938 -7.589844 L 0.835938 0 L 4.332031 0 L 4.332031 -0.78125 Z M 1.617188 -0.78125 "/></g></g></g><g fill="#f0dfc8" fill-opacity="1"><g transform="translate(145.273176, 235.050556)"><g><path d="M 5.34375 0 L 5.34375 -0.726562 L 1.617188 -0.726562 L 1.617188 -3.425781 L 5.234375 -3.425781 L 5.234375 -4.164062 L 1.617188 -4.164062 L 1.617188 -6.863281 L 5.34375 -6.863281 L 5.34375 -7.589844 L 0.835938 -7.589844 L 0.835938 0 Z M 5.34375 0 "/></g></g></g><g fill="#f0dfc8" fill-opacity="1"><g transform="translate(159.400211, 235.050556)"><g><path d="M 5.34375 0 L 5.34375 -0.726562 L 1.617188 -0.726562 L 1.617188 -3.425781 L 5.234375 -3.425781 L 5.234375 -4.164062 L 1.617188 -4.164062 L 1.617188 -6.863281 L 5.34375 -6.863281 L 5.34375 -7.589844 L 0.835938 -7.589844 L 0.835938 0 Z M 5.34375 0 "/></g></g></g><g fill="#f0dfc8" fill-opacity="1"><g transform="translate(173.527249, 235.050556)"><g><path d="M 7.800781 -2.320312 L 6.941406 -2.320312 C 6.671875 -1.832031 6.304688 -1.429688 5.835938 -1.136719 C 5.367188 -0.835938 4.84375 -0.691406 4.285156 -0.691406 C 3.449219 -0.691406 2.734375 -0.992188 2.144531 -1.617188 C 1.5625 -2.210938 1.285156 -2.933594 1.285156 -3.785156 C 1.285156 -4.632812 1.5625 -5.355469 2.144531 -5.960938 C 2.410156 -6.238281 2.734375 -6.460938 3.101562 -6.628906 C 3.460938 -6.796875 3.816406 -6.886719 4.175781 -6.886719 C 4.519531 -6.886719 4.820312 -6.839844 5.089844 -6.761719 C 5.902344 -6.515625 6.515625 -6.027344 6.929688 -5.277344 L 7.789062 -5.277344 C 7.5 -5.992188 7.042969 -6.574219 6.40625 -7.019531 C 5.757812 -7.464844 5.054688 -7.6875 4.285156 -7.6875 C 3.226562 -7.6875 2.332031 -7.296875 1.597656 -6.527344 C 1.25 -6.171875 0.980469 -5.746094 0.792969 -5.277344 C 0.589844 -4.808594 0.503906 -4.308594 0.503906 -3.785156 C 0.503906 -2.710938 0.859375 -1.808594 1.597656 -1.050781 C 2.332031 -0.269531 3.226562 0.113281 4.285156 0.113281 C 5.054688 0.113281 5.757812 -0.113281 6.417969 -0.558594 C 7.054688 -1.003906 7.511719 -1.585938 7.800781 -2.320312 Z M 7.800781 -2.320312 "/></g></g></g><g fill="#f0dfc8" fill-opacity="1"><g transform="translate(189.606626, 235.050556)"><g><path d="M 5.34375 0 L 5.34375 -0.726562 L 1.617188 -0.726562 L 1.617188 -3.425781 L 5.234375 -3.425781 L 5.234375 -4.164062 L 1.617188 -4.164062 L 1.617188 -6.863281 L 5.34375 -6.863281 L 5.34375 -7.589844 L 0.835938 -7.589844 L 0.835938 0 Z M 5.34375 0 "/></g></g></g><g fill="#f0dfc8" fill-opacity="1"><g transform="translate(203.730237, 235.050556)"><g/></g></g><g fill="#f0dfc8" fill-opacity="1"><g transform="translate(214.688919, 235.050556)"><g/></g></g><g fill="#f0dfc8" fill-opacity="1"><g transform="translate(225.644298, 235.050556)"><g><path d="M 5.792969 -2.109375 C 5.792969 -2.644531 5.65625 -3.101562 5.402344 -3.460938 C 5.132812 -3.816406 4.777344 -4.0625 4.339844 -4.183594 C 4.597656 -4.296875 4.820312 -4.496094 4.988281 -4.796875 C 5.066406 -4.933594 5.121094 -5.066406 5.167969 -5.210938 C 5.210938 -5.355469 5.234375 -5.558594 5.234375 -5.8125 C 5.234375 -6.058594 5.167969 -6.316406 5.054688 -6.5625 C 4.71875 -7.242188 3.996094 -7.589844 2.890625 -7.589844 L 0.835938 -7.589844 L 0.835938 0 L 3.160156 0 C 3.929688 0 4.542969 -0.167969 5.011719 -0.523438 C 5.246094 -0.703125 5.433594 -0.9375 5.578125 -1.226562 C 5.714844 -1.507812 5.792969 -1.796875 5.792969 -2.109375 Z M 4.453125 -5.691406 C 4.453125 -5.277344 4.332031 -4.976562 4.085938 -4.777344 C 3.839844 -4.574219 3.515625 -4.476562 3.113281 -4.476562 L 1.617188 -4.476562 L 1.617188 -6.839844 L 2.890625 -6.839844 C 3.929688 -6.839844 4.453125 -6.449219 4.453125 -5.691406 Z M 5.011719 -2.265625 C 5.011719 -1.808594 4.855469 -1.441406 4.542969 -1.160156 C 4.242188 -0.882812 3.851562 -0.746094 3.382812 -0.746094 L 1.617188 -0.746094 L 1.617188 -3.695312 L 3.503906 -3.695312 C 3.894531 -3.695312 4.242188 -3.558594 4.542969 -3.292969 C 4.675781 -3.167969 4.789062 -3.023438 4.875 -2.855469 C 4.964844 -2.679688 5.011719 -2.488281 5.011719 -2.265625 Z M 5.011719 -2.265625 "/></g></g></g><g fill="#f0dfc8" fill-opacity="1"><g transform="translate(239.603999, 235.050556)"><g><path d="M 2.066406 -2.789062 L 3.449219 -6.28125 L 4.820312 -2.789062 Z M 6.773438 0 L 3.449219 -8.113281 L 0.113281 0 L 0.960938 0 L 1.773438 -2.066406 L 5.109375 -2.066406 L 5.925781 0 Z M 6.773438 0 "/></g></g></g><g fill="#f0dfc8" fill-opacity="1"><g transform="translate(254.433886, 235.050556)"><g><path d="M 8.324219 -3.550781 L 4.375 -3.550781 L 4.375 -2.867188 L 7.453125 -2.867188 C 7.21875 -2.210938 6.828125 -1.675781 6.273438 -1.285156 C 5.714844 -0.882812 5.089844 -0.691406 4.40625 -0.691406 C 3.539062 -0.691406 2.800781 -0.992188 2.1875 -1.605469 C 1.585938 -2.222656 1.285156 -2.96875 1.285156 -3.828125 C 1.285156 -4.6875 1.585938 -5.421875 2.199219 -6.039062 C 2.800781 -6.640625 3.539062 -6.953125 4.40625 -6.953125 C 5.054688 -6.953125 5.648438 -6.761719 6.171875 -6.394531 C 6.707031 -6.027344 7.085938 -5.546875 7.332031 -4.933594 L 8.15625 -4.933594 C 7.902344 -5.769531 7.421875 -6.4375 6.730469 -6.953125 C 6.039062 -7.464844 5.234375 -7.734375 4.332031 -7.734375 C 3.839844 -7.734375 3.359375 -7.621094 2.890625 -7.421875 C 2.410156 -7.21875 1.996094 -6.941406 1.640625 -6.585938 C 1.285156 -6.226562 1.003906 -5.8125 0.804688 -5.34375 C 0.601562 -4.867188 0.503906 -4.351562 0.503906 -3.816406 C 0.503906 -3.28125 0.601562 -2.769531 0.804688 -2.300781 C 1.003906 -1.820312 1.285156 -1.40625 1.640625 -1.050781 C 1.996094 -0.691406 2.410156 -0.414062 2.890625 -0.210938 C 3.359375 -0.0117188 3.871094 0.0898438 4.40625 0.0898438 C 5.324219 0.0898438 6.148438 -0.199219 6.886719 -0.792969 C 7.621094 -1.394531 8.078125 -2.152344 8.246094 -3.082031 Z M 8.324219 -3.550781 "/></g></g></g><g fill="#f0dfc8" fill-opacity="1"><g transform="translate(186.252209, 216.093091)"><g><path d="M 3.964844 -94.621094 C 10.042969 -94.621094 12.949219 -93.695312 13.082031 -88.011719 L 13.082031 -8.589844 C 13.082031 -2.644531 10.308594 -1.71875 3.964844 -1.71875 L 3.964844 0 L 48.894531 0 C 81.933594 0 87.351562 -16.253906 87.351562 -27.882812 C 87.351562 -41.097656 77.042969 -49.292969 60.261719 -49.292969 L 60.261719 -49.820312 C 72.683594 -49.953125 81.40625 -58.808594 81.40625 -72.417969 C 81.40625 -93.957031 61.183594 -96.335938 41.628906 -96.335938 L 3.964844 -96.335938 Z M 44.136719 -48.761719 C 59.46875 -48.761719 71.492188 -44.800781 71.492188 -28.148438 C 71.492188 -9.777344 61.847656 -1.585938 41.890625 -1.585938 C 30 -1.585938 27.75 -2.378906 27.75 -8.589844 L 27.75 -48.761719 Z M 27.75 -88.011719 C 27.75 -94.089844 30.660156 -94.621094 44.269531 -94.621094 C 59.601562 -94.621094 66.867188 -86.824219 66.867188 -72.417969 C 66.867188 -54.179688 55.765625 -50.347656 41.757812 -50.347656 L 27.75 -50.347656 Z M 27.75 -88.011719 "/></g></g></g></svg>